<svg xmlns="http://www.w3.org/2000/svg" viewBox="0 0 600 400">
  <!-- Background -->
  <rect width="600" height="400" fill="#f0f0f0"/>
  
  <!-- Input Blocks -->
  <rect x="50" y="50" width="120" height="60" fill="#e0e0e0" stroke="#000000" stroke-width="2"/>
  <text x="110" y="80" text-anchor="middle" font-size="10">Left Joystick</text>
  
  <rect x="50" y="150" width="120" height="60" fill="#d0d0d0" stroke="#000000" stroke-width="2"/>
  <text x="110" y="180" text-anchor="middle" font-size="10">3 Control Buttons</text>
  
  <rect x="430" y="50" width="120" height="60" fill="#e0e0e0" stroke="#000000" stroke-width="2"/>
  <text x="490" y="80" text-anchor="middle" font-size="10">Right Joystick</text>
  
  <rect x="430" y="150" width="120" height="60" fill="#ff4136" stroke="#000000" stroke-width="2"/>
  <text x="490" y="180" text-anchor="middle" font-size="10" fill="white">E-Stop Button</text>
  
  <!-- Teensy Block -->
  <rect x="240" y="100" width="120" height="100" fill="#4CAF50" stroke="#000000" stroke-width="2"/>
  <text x="300" y="150" text-anchor="middle" font-size="10" fill="white">Teensy</text>
  <text x="300" y="130" text-anchor="middle" font-size="8" fill="white">Input Processing</text>
  <text x="300" y="170" text-anchor="middle" font-size="8" fill="white">Serial Communication</text>
  
  <!-- Raspberry Pi Block -->
  <rect x="240" y="250" width="120" height="60" fill="#2196F3" stroke="#000000" stroke-width="2"/>
  <text x="300" y="270" text-anchor="middle" font-size="10" fill="white">Raspberry Pi 5</text>
  <text x="300" y="285" text-anchor="middle" font-size="8" fill="white">ROS2 Node</text>
  
  <!-- Touchscreen Block -->
  <rect x="240" y="350" width="120" height="60" fill="#ffffff" stroke="#000000" stroke-width="2"/>
  <text x="300" y="380" text-anchor="middle" font-size="10">7" Touchscreen</text>
  
  <!-- Arrows -->
  <path d="M170 80 L240 120" stroke="#000000" marker-end="url(#arrow)"/>
  <path d="M170 180 L240 160" stroke="#000000" marker-end="url(#arrow)"/>
  <path d="M430 80 L360 120" stroke="#000000" marker-end="url(#arrow)"/>
  <path d="M430 180 L360 160" stroke="#000000" marker-end="url(#arrow)"/>
  <path d="M300 200 L300 250" stroke="#000000" marker-end="url(#arrow)"/>
  <path d="M300 310 L300 350" stroke="#000000" marker-end="url(#arrow)"/>
  
  <!-- Arrow Marker -->
  <defs>
    <marker id="arrow" markerWidth="10" markerHeight="7" refX="0" refY="3.5" orient="auto">
      <polygon points="0 0, 10 3.5, 0 7" fill="#000000"/>
    </marker>
  </defs>
  
  <!-- Title -->
  <text x="300" y="30" text-anchor="middle" font-size="16" font-weight="bold">ROS Controller System Architecture</text>
</svg>
