<svg xmlns="http://www.w3.org/2000/svg" viewBox="0 0 600 400">
  <!-- Background -->
  <rect width="600" height="400" fill="#f0f0f0"/>
  
  <!-- Input Blocks -->
  <rect x="50" y="30" width="100" height="50" fill="#e0e0e0" stroke="#000000" stroke-width="2"/>
  <text x="100" y="55" text-anchor="middle" font-size="9">Left Joystick</text>
  
  <rect x="50" y="120" width="100" height="50" fill="#d0d0d0" stroke="#000000" stroke-width="2"/>
  <text x="100" y="145" text-anchor="middle" font-size="9">3 Control Buttons</text>
  
  <rect x="450" y="30" width="100" height="50" fill="#e0e0e0" stroke="#000000" stroke-width="2"/>
  <text x="500" y="55" text-anchor="middle" font-size="9">Right Joystick</text>
  
  <rect x="450" y="120" width="100" height="50" fill="#ff4136" stroke="#000000" stroke-width="2"/>
  <text x="500" y="145" text-anchor="middle" font-size="9" fill="white">E-Stop Button</text>
  
  <!-- Teensy Block -->
  <rect x="240" y="80" width="120" height="80" fill="#4CAF50" stroke="#000000" stroke-width="2"/>
  <text x="300" y="120" text-anchor="middle" font-size="9" fill="white">Teensy</text>
  <text x="300" y="105" text-anchor="middle" font-size="7" fill="white">Input Processing</text>
  <text x="300" y="135" text-anchor="middle" font-size="7" fill="white">Serial Communication</text>
  
  <!-- Raspberry Pi Block -->
  <rect x="240" y="220" width="120" height="50" fill="#2196F3" stroke="#000000" stroke-width="2"/>
  <text x="300" y="240" text-anchor="middle" font-size="9" fill="white">Raspberry Pi 5</text>
  <text x="300" y="255" text-anchor="middle" font-size="7" fill="white">ROS2 Node</text>
  
  <!-- Touchscreen Block -->
  <rect x="240" y="300" width="120" height="50" fill="#ffffff" stroke="#000000" stroke-width="2"/>
  <text x="300" y="325" text-anchor="middle" font-size="9">7" Touchscreen</text>
  
  <!-- Arrows -->
  <path d="M150 55 L240 100" stroke="#000000" marker-end="url(#arrow)"/>
  <path d="M150 145 L240 130" stroke="#000000" marker-end="url(#arrow)"/>
  <path d="M450 55 L360 100" stroke="#000000" marker-end="url(#arrow)"/>
  <path d="M450 145 L360 130" stroke="#000000" marker-end="url(#arrow)"/>
  <path d="M300 160 L300 220" stroke="#000000" marker-end="url(#arrow)"/>
  <path d="M300 270 L300 300" stroke="#000000" marker-end="url(#arrow)"/>
  
  <!-- Arrow Marker -->
  <defs>
    <marker id="arrow" markerWidth="10" markerHeight="7" refX="0" refY="3.5" orient="auto">
      <polygon points="0 0, 10 3.5, 0 7" fill="#000000"/>
    </marker>
  </defs>
  
  <!-- Title -->
  <text x="300" y="20" text-anchor="middle" font-size="14" font-weight="bold">ROS Controller System Architecture</text>
</svg>
